<svg xmlns="http://www.w3.org/2000/svg" width="46" height="45" viewBox="0 0 46 45">
  <g fill="none" fill-rule="evenodd">
    <path fill="#CE1312" d="M0,22.5 C0,10.0735925 10.1432762,0 22.6556429,0 C35.1680097,0 45.3112859,10.0735925 45.3112859,22.5 C45.3112859,34.9264075 35.1680097,45 22.6556429,45 C10.1432762,45 0,34.9264075 0,22.5 Z"/>
    <path fill="#FFFFFF" d="M34.4472131,17.971009 C34.4472131,17.971009 34.2111803,16.2810348 33.488,15.536833 C32.5702623,14.559637 31.5416721,14.5550384 31.0703607,14.4983227 C27.6935082,14.25 22.6282295,14.25 22.6282295,14.25 L22.6176721,14.25 C22.6176721,14.25 17.5523934,14.25 14.175541,14.4983227 C13.7034754,14.5550384 12.6756393,14.559637 11.7571475,15.536833 C11.0339672,16.2810348 10.7986885,17.971009 10.7986885,17.971009 C10.7986885,17.971009 10.557377,19.9560581 10.557377,21.9403408 L10.557377,23.8012285 C10.557377,25.7862776 10.7986885,27.7705603 10.7986885,27.7705603 C10.7986885,27.7705603 11.0339672,29.4605345 11.7571475,30.2047363 C12.6756393,31.1819323 13.8814426,31.1512752 14.4183607,31.2532101 C16.3488525,31.4417515 22.6229508,31.5 22.6229508,31.5 C22.6229508,31.5 27.6935082,31.4923357 31.0703607,31.244013 C31.5416721,31.1865309 32.5702623,31.1819323 33.488,30.2047363 C34.2111803,29.4605345 34.4472131,27.7705603 34.4472131,27.7705603 C34.4472131,27.7705603 34.6885246,25.7862776 34.6885246,23.8012285 L34.6885246,21.9403408 C34.6885246,19.9560581 34.4472131,17.971009 34.4472131,17.971009 L34.4472131,17.971009 Z"/>
    <polygon fill="#CE1312" points="20.131 26.056 20.131 19.165 26.651 22.622"/>
  </g>
</svg>
