<svg xmlns="http://www.w3.org/2000/svg" width="150" height="29" viewBox="0 0 150 29">
  <path fill="#323232" fill-rule="evenodd" d="M-0.48046875,0.4453125 L6.8046875,0.4453125 C9.77345234,0.4453125 11.9348891,1.02147861 13.2890625,2.17382812 C14.6432359,3.32617764 15.3203125,5.1588416 15.3203125,7.671875 C15.3203125,9.3255291 14.9622432,10.7089788 14.2460938,11.8222656 C13.5299443,12.9355524 12.5533916,13.6093738 11.3164062,13.84375 L11.3164062,14.0390625 C12.9309977,14.4427104 14.0963506,15.1979111 14.8125,16.3046875 C15.5286494,17.4114639 15.8867188,18.8828033 15.8867188,20.71875 C15.8867188,23.3099088 15.1933663,25.3378833 13.8066406,26.8027344 C12.4199149,28.2675854 10.5221475,29 8.11328125,29 L-0.48046875,29 L-0.48046875,0.4453125 Z M4.51953125,11.9296875 L6.9609375,11.9296875 C8.08073477,11.9296875 8.8684873,11.6302113 9.32421875,11.03125 C9.7799502,10.4322887 10.0078125,9.54037051 10.0078125,8.35546875 C10.0078125,7.17056699 9.74739844,6.32096611 9.2265625,5.80664062 C8.70572656,5.29231514 7.88542227,5.03515625 6.765625,5.03515625 L4.51953125,5.03515625 L4.51953125,11.9296875 Z M4.51953125,16.3632812 L4.51953125,24.3515625 L7.1953125,24.3515625 C8.30208887,24.3515625 9.12564834,24.0130242 9.66601562,23.3359375 C10.2063829,22.6588508 10.4765625,21.6106842 10.4765625,20.1914062 C10.4765625,17.6393102 9.35678203,16.3632812 7.1171875,16.3632812 L4.51953125,16.3632812 Z M26.6679688,11.7148438 L30.4765625,0.4453125 L36.0429688,0.4453125 L29.265625,17.5546875 L29.265625,29 L24.03125,29 L24.03125,17.7695312 L17.2734375,0.4453125 L22.8789062,0.4453125 L26.6679688,11.7148438 Z M57.9179688,4.68359375 C56.3945236,4.68359375 55.1933638,5.57551191 54.3144531,7.359375 C53.4355425,9.14323809 52.9960938,11.623682 52.9960938,14.8007812 C52.9960938,21.4153977 54.7213369,24.7226562 58.171875,24.7226562 C59.6822992,24.7226562 61.2643146,24.2408902 62.9179688,23.2773438 L62.9179688,28.0039062 C61.5247326,28.92839 59.7408963,29.390625 57.5664062,29.390625 C54.3502443,29.390625 51.8795659,28.1113409 50.1542969,25.5527344 C48.4290278,22.9941278 47.5664062,19.3971586 47.5664062,14.7617188 C47.5664062,10.1262789 48.4550692,6.51303379 50.2324219,3.921875 C52.0097745,1.33071621 54.4804529,0.03515625 57.6445312,0.03515625 C58.6862031,0.03515625 59.6855421,0.178383984 60.6425781,0.46484375 C61.5996142,0.751303516 62.6249945,1.25260059 63.71875,1.96875 L61.9609375,6.28515625 C61.3749971,5.8815084 60.7500033,5.51367354 60.0859375,5.18164062 C59.4218717,4.84960771 58.6992227,4.68359375 57.9179688,4.68359375 Z M73.8359375,11.7148438 L77.6445312,0.4453125 L83.2109375,0.4453125 L76.4335938,17.5546875 L76.4335938,29 L71.1992188,29 L71.1992188,17.7695312 L64.4414062,0.4453125 L70.046875,0.4453125 L73.8359375,11.7148438 Z M94.5976562,4.68359375 C93.0742111,4.68359375 91.8730513,5.57551191 90.9941406,7.359375 C90.11523,9.14323809 89.6757812,11.623682 89.6757812,14.8007812 C89.6757812,21.4153977 91.4010244,24.7226562 94.8515625,24.7226562 C96.3619867,24.7226562 97.9440021,24.2408902 99.5976562,23.2773438 L99.5976562,28.0039062 C98.2044201,28.92839 96.4205838,29.390625 94.2460938,29.390625 C91.0299318,29.390625 88.5592534,28.1113409 86.8339844,25.5527344 C85.1087153,22.9941278 84.2460938,19.3971586 84.2460938,14.7617188 C84.2460938,10.1262789 85.1347567,6.51303379 86.9121094,3.921875 C88.689462,1.33071621 91.1601404,0.03515625 94.3242188,0.03515625 C95.3658906,0.03515625 96.3652296,0.178383984 97.3222656,0.46484375 C98.2793017,0.751303516 99.304682,1.25260059 100.398438,1.96875 L98.640625,6.28515625 C98.0546846,5.8815084 97.4296908,5.51367354 96.765625,5.18164062 C96.1015592,4.84960771 95.3789102,4.68359375 94.5976562,4.68359375 Z M103.640625,29 L103.640625,0.4453125 L108.953125,0.4453125 L108.953125,24.3515625 L116.316406,24.3515625 L116.316406,29 L103.640625,29 Z M132.585938,29 L119.714844,29 L119.714844,0.4453125 L132.585938,0.4453125 L132.585938,5.03515625 L125.027344,5.03515625 L125.027344,11.8320312 L132.039062,11.8320312 L132.039062,16.4414062 L125.027344,16.4414062 L125.027344,24.3515625 L132.585938,24.3515625 L132.585938,29 Z M149.753906,21.1289062 C149.753906,23.7981904 149.080085,25.8424408 147.732422,27.2617188 C146.384759,28.6809967 144.441419,29.390625 141.902344,29.390625 C139.415352,29.390625 137.299488,28.9023486 135.554688,27.9257812 L135.554688,22.671875 C137.690115,24.0651111 139.649731,24.7617188 141.433594,24.7617188 C142.449224,24.7617188 143.21419,24.4817736 143.728516,23.921875 C144.242841,23.3619764 144.5,22.6002652 144.5,21.6367188 C144.5,20.6861932 144.194013,19.8170612 143.582031,19.0292969 C142.970049,18.2415325 141.960945,17.3658902 140.554688,16.4023438 C139.330723,15.5559854 138.402998,14.7454466 137.771484,13.9707031 C137.139971,13.1959597 136.651694,12.3268277 136.306641,11.3632812 C135.961587,10.3997348 135.789062,9.2799543 135.789062,8.00390625 C135.789062,5.55597734 136.469394,3.61589258 137.830078,2.18359375 C139.190762,0.751294922 141.016916,0.03515625 143.308594,0.03515625 C145.496105,0.03515625 147.598948,0.647129297 149.617188,1.87109375 L147.859375,6.12890625 C147.234372,5.76432109 146.580082,5.43880352 145.896484,5.15234375 C145.212887,4.86588398 144.480473,4.72265625 143.699219,4.72265625 C142.839839,4.72265625 142.179039,5.00585654 141.716797,5.57226562 C141.254555,6.13867471 141.023438,6.91015137 141.023438,7.88671875 C141.023438,8.85026523 141.300127,9.69010059 141.853516,10.40625 C142.406904,11.1223994 143.373691,11.9361934 144.753906,12.8476562 C146.615895,14.0976625 147.91471,15.3736914 148.650391,16.6757812 C149.386071,17.9778711 149.753906,19.4622313 149.753906,21.1289062 Z"/>
</svg>
